# xmcd
#
# Track frame offsets:
# 150
# 7512
# 16518
# 25187
# 32845
# 45514
# 55961
# 66861
# 78642
# 89312
#
# Disc length: 1367 seconds
#
#
# Revision: 0
# Processed by: cddbd v1.5.1PL2 Copyright (c) Steve Scherf et al.
# Submitted via: FreeRIP 2.941 
#
DISCID=6705550a
DTITLE=Villancicos populares_II - Disco_I
DYEAR=1998
DGENRE=Contemporary Christian
TTITLE0=Esta noche nace el niño
TTITLE1=San Jose al niño Jesus
TTITLE2=Gatatumba
TTITLE3=Un pastor haciendo gachas estaba
TTITLE4=Los campanilleros
TTITLE5=Burrito de orejas largas
TTITLE6=Manolito Manolito
TTITLE7=La Virgen camina a Egipto
TTITLE8=A esta puerta llama un niño
TTITLE9=La Virgen lava pañales
EXTD=AD-02298
EXTT0=
EXTT1=
EXTT2=
EXTT3=
EXTT4=
EXTT5=
EXTT6=
EXTT7=
EXTT8=
EXTT9=
PLAYORDER=
